<svg xmlns="http://www.w3.org/2000/svg" width="31.579" height="45.09" viewBox="0 0 31.579 45.09">
  <g id="Сгруппировать_190" data-name="Сгруппировать 190" transform="translate(0 0)">
    <path id="Контур_62" data-name="Контур 62" d="M107.3,1.447A4.442,4.442,0,0,0,104.048,0H93.629a.881.881,0,0,0-.757.431c-.8,1.352-1.316,2.412-1.728,3.263-1.04,2.147-1.128,2.329-3.254,2.29a7.613,7.613,0,0,0-4.668,1.127,6.554,6.554,0,0,0-2.619,3.3,6.75,6.75,0,0,0-.116,4.195,6.959,6.959,0,0,0,1.98,3.128,2.716,2.716,0,0,0-.354.854,2.994,2.994,0,0,0-.065.472A11.464,11.464,0,0,0,76.75,29.4c.343,3.8,2.829,6.959,6.869,8.788a7.972,7.972,0,0,0-.234,6.407.881.881,0,0,0,.791.493h6.48a.881.881,0,1,0,0-1.761H84.771a6.8,6.8,0,0,1,.514-4.534A8.717,8.717,0,0,0,87.236,39c3.051,0,6.647-1.277,7.909-3.1a.881.881,0,1,0-1.448-1,6.921,6.921,0,0,1-3.7,1.98,8.681,8.681,0,0,1-4.812.055c-4-1.521-6.367-4.251-6.678-7.689a9.7,9.7,0,0,1,4.536-8.725,15.577,15.577,0,0,1,1.939.319l15.354,3.518c4.417,5.365,5.519,11.58,3.356,18.973H98.564a.881.881,0,0,0,0,1.761h5.779a.881.881,0,0,0,.84-.617,24.312,24.312,0,0,0,.906-12.337,20.142,20.142,0,0,0-3.247-7.388,3.783,3.783,0,0,0,1.926-.7,4.5,4.5,0,0,0,1.783-3.277l1.717-16.453a3.683,3.683,0,0,0-.969-2.871Zm-13.166.315h5.636a4.9,4.9,0,0,1-3.476,4.059,13.307,13.307,0,0,1-4.529.422,13.468,13.468,0,0,0,.963-1.78C93.081,3.735,93.51,2.849,94.135,1.761ZM104.8,20.588a2.773,2.773,0,0,1-1.056,2.027,2.094,2.094,0,0,1-1.711.324L84.916,19.017a9.935,9.935,0,0,0-1.055-.146,2.065,2.065,0,0,1,.51-.679,3.552,3.552,0,0,1,2.892-.779l12.971,2.314a.881.881,0,0,0,1.035-.829l.3-6.979,4.037.963Zm1.717-16.454-.729,6.98-4.851-1.157a.881.881,0,0,0-1.084.819l-.3,7.04L87.574,15.678a5.324,5.324,0,0,0-3.863.81,5,5,0,0,1-1.451-5.475,5.172,5.172,0,0,1,5.536-3.27h.022c.514.021,1.093.067,1.705.115,1.02.08,2.154.17,3.308.17A13.1,13.1,0,0,0,96.838,7.5a6.74,6.74,0,0,0,4.723-5.735h2.488a2.654,2.654,0,0,1,1.943.864,1.944,1.944,0,0,1,.526,1.509Z" transform="translate(-76.71 0)" fill="#634282"/>
    <path id="Контур_63" data-name="Контур 63" d="M134.659,273.357a3.358,3.358,0,0,0-4.463,5.013l3.852,3.715a.881.881,0,0,0,1.223,0l3.849-3.714a3.358,3.358,0,0,0-4.461-5.013Zm3.723,2.624a1.584,1.584,0,0,1-.485,1.121l-3.238,3.125L131.42,277.1a1.595,1.595,0,0,1,1.081-2.743h.029a1.586,1.586,0,0,1,1.108.445l.409.394a.881.881,0,0,0,1.222,0l.41-.4a1.594,1.594,0,0,1,2.7,1.177Z" transform="translate(-124.553 -248.591)" fill="#e861a0"/>
  </g>
</svg>
