<svg xmlns="http://www.w3.org/2000/svg" width="22.002" height="22.002" viewBox="0 0 22.002 22.002">
  <g id="baby" transform="translate(0 0)">
    <path id="Path_65" data-name="Path 65" d="M18.632,14.034C20.525,13.869,22,12.572,22,11s-1.479-2.868-3.373-3.033A8.238,8.238,0,0,0,14.74,3.692a3.737,3.737,0,0,0-7.473,0A8.237,8.237,0,0,0,3.375,7.968C1.481,8.133,0,9.43,0,11s1.479,2.868,3.373,3.033a8.292,8.292,0,0,0,3.049,3.778,7.061,7.061,0,0,0-2.363,3.345.645.645,0,1,0,1.225.4A5.827,5.827,0,0,1,7.671,18.5a8.219,8.219,0,0,0,6.783-.054,5.825,5.825,0,0,1,2.469,3.109.645.645,0,1,0,1.225-.4,7.057,7.057,0,0,0-2.456-3.418,8.223,8.223,0,0,0,2.94-3.7ZM20.715,11c0,.753-.71,1.414-1.672,1.659a8.269,8.269,0,0,0,0-3.319C20.005,9.588,20.715,10.248,20.715,11ZM11,1.289a2.468,2.468,0,0,1,2.428,2.162,3.741,3.741,0,0,0-3.256,2.637A2.443,2.443,0,0,1,8.554,3.782,2.474,2.474,0,0,1,11,1.289ZM1.291,11c0-.753.71-1.414,1.672-1.659a8.269,8.269,0,0,0,0,3.319C2,12.415,1.291,11.754,1.291,11Zm12.9,6.145a6.92,6.92,0,0,1-6.7-12.1A3.726,3.726,0,0,0,10.608,7.5a.645.645,0,0,0,.709-.576,2.44,2.44,0,0,1,2.622-2.189,6.92,6.92,0,0,1,.248,12.411Z" transform="translate(-0.002 0)" fill="#fff"/>
    <path id="Path_66" data-name="Path 66" d="M140.391,202.528a.619.619,0,0,0,0-.875,2.268,2.268,0,0,0-3.209,0,.619.619,0,0,0,.875.875,1.031,1.031,0,0,1,1.458,0A.619.619,0,0,0,140.391,202.528Z" transform="translate(-131.066 -192.321)" fill="#fff"/>
    <path id="Path_67" data-name="Path 67" d="M292.391,201.652a2.268,2.268,0,0,0-3.209,0,.619.619,0,0,0,.875.875,1.031,1.031,0,0,1,1.458,0,.619.619,0,0,0,.875-.875Z" transform="translate(-276.481 -192.32)" fill="#fff"/>
    <path id="Path_68" data-name="Path 68" d="M204.853,313.181a1.693,1.693,0,0,1-2.392,0,.619.619,0,0,0-.875.875,2.932,2.932,0,0,0,4.142,0,.619.619,0,0,0-.875-.875Z" transform="translate(-192.656 -299.496)" fill="#fff"/>
  </g>
</svg>
