<svg xmlns="http://www.w3.org/2000/svg" width="51.559" height="82.595" viewBox="0 0 51.559 82.595">
  <g id="Group_126" data-name="Group 126" transform="translate(0)">
    <g id="Group_125" data-name="Group 125">
      <path id="Path_70" data-name="Path 70" d="M143.1,51.437l-11.834-5.072a2.665,2.665,0,0,1-1.612-2.286,36.254,36.254,0,0,0,15.157-8.393,1.212,1.212,0,0,0,.114-1.579A22.223,22.223,0,0,1,141.287,21.9V19.314a19.314,19.314,0,0,0-38.628,0V21.9a22.226,22.226,0,0,1-3.638,12.206,1.21,1.21,0,0,0,.112,1.581,36.254,36.254,0,0,0,15.157,8.393,2.666,2.666,0,0,1-1.612,2.286l-11.834,5.072a7.667,7.667,0,0,0-4.652,7.055v17.72a6.39,6.39,0,0,0,6.383,6.382h11.638a5.1,5.1,0,0,0,5.089-5.089c0-.028,0-.055,0-.083h5.343c0,.028,0,.055,0,.083a5.1,5.1,0,0,0,5.089,5.089H141.37a6.39,6.39,0,0,0,6.383-6.382V58.492A7.666,7.666,0,0,0,143.1,51.437Zm-9.609-1.485,4.082,1.749v7.565a10.215,10.215,0,0,0-6.549-2.368h-.572A11.559,11.559,0,0,0,133.492,49.952Zm1.41,10.4a5.256,5.256,0,0,1-10.426-.946c0-.028,0-.056,0-.083h6.547A7.793,7.793,0,0,1,134.9,60.348Zm7.475-25.714a35.018,35.018,0,0,1-12.728,6.937V38.944a14.142,14.142,0,0,0,6.466-11.871V20.535c.885-.01,1.8-.053,2.753-.135v1.5A24.887,24.887,0,0,0,142.376,34.634ZM121.973,2.42a16.917,16.917,0,0,1,16.841,15.555c-7.481.674-12.712-1.191-15.826-2.923a17.415,17.415,0,0,1-5.209-4.208,1.21,1.21,0,0,0-2.061.17,12.326,12.326,0,0,1-7.166,6.163,16.59,16.59,0,0,1-3.423.823A16.917,16.917,0,0,1,121.973,2.42Zm-20.4,32.214A24.888,24.888,0,0,0,105.079,21.9V20.447c2.534-.267,8.414-1.467,11.936-6.841a21.925,21.925,0,0,0,4.667,3.488,27.642,27.642,0,0,0,12.012,3.383v6.6a11.722,11.722,0,0,1-23.443,0V23.194a1.21,1.21,0,1,0-2.42,0v3.879A14.141,14.141,0,0,0,114.3,38.944v2.626A35.017,35.017,0,0,1,101.569,34.634Zm11.273,14.295.791-.339a5.084,5.084,0,0,0,3.085-4.678V40.2a14.136,14.136,0,0,0,10.512,0v3.711a5.084,5.084,0,0,0,3.085,4.678l.793.34c0,.042,0,.085,0,.127a9.145,9.145,0,0,1-4.454,7.842h-9.362a9.145,9.145,0,0,1-4.454-7.842C112.838,49.014,112.841,48.971,112.842,48.929Zm-6.47,2.773,4.082-1.749a11.56,11.56,0,0,0,3.039,6.947h-.572a10.214,10.214,0,0,0-6.549,2.368Zm7.842,28.474H102.576a3.967,3.967,0,0,1-3.963-3.963V58.492a5.25,5.25,0,0,1,3.186-4.831l2.154-.923v9.443A10.25,10.25,0,0,0,105.3,74.034a2.484,2.484,0,0,0,1.847.8h0l7.065,0h0a2.67,2.67,0,0,1,0,5.339Zm3.942-14.142a21.948,21.948,0,0,0,7.605,8.294A5.106,5.106,0,0,0,125.3,75h-6.657a5.111,5.111,0,0,0-.834-1.1,5.056,5.056,0,0,0-3.6-1.49h0l-7.065,0c-.033,0-.053-.009-.051-.005a7.842,7.842,0,0,1,5.823-13.095h2.844a22.264,22.264,0,0,0,.531,2.175,1.21,1.21,0,0,0,2.32-.688c-.168-.565-.291-1.067-.382-1.487h3.824c0,.028,0,.055,0,.083a7.676,7.676,0,0,0,14.889,2.624,7.832,7.832,0,0,1-.088,10.379.121.121,0,0,1-.057.012h-7.068a5.063,5.063,0,0,0-1.868.357,19.549,19.549,0,0,1-7.573-7.878,1.21,1.21,0,1,0-2.135,1.138Zm27.177,10.179h0a3.967,3.967,0,0,1-3.963,3.963H129.732a2.669,2.669,0,0,1,0-5.339H136.8a2.483,2.483,0,0,0,1.847-.8,10.25,10.25,0,0,0,1.347-11.851V52.739l2.154.923a5.25,5.25,0,0,1,3.186,4.831Z" transform="translate(-96.193)" fill="#634282"/>
    </g>
  </g>
</svg>
