<svg xmlns="http://www.w3.org/2000/svg" width="54.002" height="54.002" viewBox="0 0 54.002 54.002">
  <g id="baby" transform="translate(0 0)">
    <path id="Path_65" data-name="Path 65" d="M45.726,34.446C50.374,34.04,54,30.856,54,27s-3.63-7.04-8.278-7.445a20.218,20.218,0,0,0-9.552-10.5,9.171,9.171,0,0,0-18.342,0,20.218,20.218,0,0,0-9.552,10.5C3.632,19.961,0,23.145,0,27s3.631,7.04,8.279,7.445a20.351,20.351,0,0,0,7.484,9.272,17.331,17.331,0,0,0-5.8,8.209,1.582,1.582,0,1,0,3.007.985,14.3,14.3,0,0,1,5.851-7.5,20.173,20.173,0,0,0,16.648-.133,14.3,14.3,0,0,1,6.059,7.631,1.582,1.582,0,1,0,3.007-.985,17.322,17.322,0,0,0-6.029-8.388,20.182,20.182,0,0,0,7.216-9.093ZM50.84,27c0,1.848-1.742,3.469-4.1,4.073a20.3,20.3,0,0,0,0-8.146C49.1,23.532,50.84,25.153,50.84,27ZM27,3.164a6.057,6.057,0,0,1,5.959,5.307,9.181,9.181,0,0,0-7.99,6.472,6,6,0,0,1-3.981-5.663A6.072,6.072,0,0,1,27,3.164ZM3.166,27c0-1.848,1.742-3.469,4.1-4.073a20.3,20.3,0,0,0,0,8.146C4.908,30.47,3.166,28.849,3.166,27Zm31.65,15.081a16.984,16.984,0,0,1-16.453-29.7,9.145,9.145,0,0,0,7.671,6.025,1.582,1.582,0,0,0,1.74-1.413,5.99,5.99,0,0,1,6.435-5.372,16.984,16.984,0,0,1,.608,30.461Z" transform="translate(-0.002 0)" fill="#634282"/>
    <path id="Path_66" data-name="Path 66" d="M145.322,204.768a1.519,1.519,0,0,0,0-2.148,5.566,5.566,0,0,0-7.875,0,1.519,1.519,0,0,0,2.148,2.148,2.53,2.53,0,0,1,3.58,0A1.519,1.519,0,0,0,145.322,204.768Z" transform="translate(-122.434 -179.714)" fill="#634282"/>
    <path id="Path_67" data-name="Path 67" d="M297.322,202.62a5.566,5.566,0,0,0-7.875,0,1.519,1.519,0,0,0,2.148,2.148,2.53,2.53,0,0,1,3.58,0,1.519,1.519,0,0,0,2.148-2.148Z" transform="translate(-258.271 -179.713)" fill="#634282"/>
    <path id="Path_68" data-name="Path 68" d="M209.868,313.445a4.156,4.156,0,0,1-5.871,0,1.519,1.519,0,0,0-2.148,2.148,7.2,7.2,0,0,0,10.166,0,1.519,1.519,0,1,0-2.148-2.148Z" transform="translate(-179.932 -279.855)" fill="#e861a0"/>
  </g>
</svg>
