<svg xmlns="http://www.w3.org/2000/svg" width="16.658" height="17.5" viewBox="0 0 16.658 17.5">
  <path id="Контур_129" data-name="Контур 129" d="M3,8.737V5.368A1.684,1.684,0,0,1,4.684,3.684H6.368M3,8.737v7.579A1.684,1.684,0,0,0,4.684,18H16.474a1.684,1.684,0,0,0,1.684-1.684V8.737M3,8.737H18.158m0,0V5.368a1.684,1.684,0,0,0-1.684-1.684h-.421m-9.684,0V2m0,1.684V5.368m6.737-1.684V2m0,1.684V5.368m0-1.684H9.316" transform="translate(-2.25 -1.25)" fill="none" stroke="#000" stroke-linecap="round" stroke-linejoin="round" stroke-width="1.5"/>
</svg>
