<svg xmlns="http://www.w3.org/2000/svg" width="55" height="55" viewBox="0 0 55 55">
  <g id="facebook" transform="translate(0.065 0.238)">
    <rect id="Прямоугольник_168" data-name="Прямоугольник 168" width="55" height="55" rx="27.5" transform="translate(-0.065 -0.238)" fill="#3b5998"/>
    <g id="facebook-logo" transform="translate(22.717 17.94)">
      <g id="Сгруппировать_134" data-name="Сгруппировать 134" transform="translate(0)">
        <g id="Сгруппировать_133" data-name="Сгруппировать 133">
          <path id="Контур_74" data-name="Контур 74" d="M31.414,0,29.08,0a4.1,4.1,0,0,0-4.317,4.43V6.472H22.416a.367.367,0,0,0-.367.367V9.8a.367.367,0,0,0,.367.367h2.347v7.467A.367.367,0,0,0,25.13,18h3.062a.367.367,0,0,0,.367-.367V10.166H31.3A.367.367,0,0,0,31.67,9.8V6.839a.368.368,0,0,0-.367-.367H28.559V4.741c0-.832.2-1.255,1.282-1.255h1.572a.367.367,0,0,0,.367-.367V.371A.367.367,0,0,0,31.414,0Z" transform="translate(-22.049)" fill="#fff"/>
        </g>
      </g>
    </g>
  </g>
</svg>
