<svg xmlns="http://www.w3.org/2000/svg" width="31" height="31" viewBox="0 0 31 31">
  <g id="facebook" transform="translate(0.065 0.238)">
    <rect id="Прямоугольник_168" data-name="Прямоугольник 168" width="31" height="31" rx="15.5" transform="translate(-0.065 -0.238)" fill="#3b5998"/>
    <g id="facebook-logo" transform="translate(11.001 7.708)">
      <g id="Сгруппировать_134" data-name="Сгруппировать 134" transform="translate(0)">
        <g id="Сгруппировать_133" data-name="Сгруппировать 133">
          <path id="Контур_74" data-name="Контур 74" d="M30.065,0l-2,0a3.509,3.509,0,0,0-3.7,3.792V5.54H22.363a.314.314,0,0,0-.314.314V8.388a.314.314,0,0,0,.314.314h2.009v6.392a.314.314,0,0,0,.314.314h2.621a.314.314,0,0,0,.314-.314V8.7H29.97a.314.314,0,0,0,.314-.314V5.855a.315.315,0,0,0-.314-.314h-2.35V4.058c0-.712.17-1.074,1.1-1.074h1.346a.314.314,0,0,0,.314-.314V.317A.314.314,0,0,0,30.065,0Z" transform="translate(-22.049)" fill="#fff"/>
        </g>
      </g>
    </g>
  </g>
</svg>
