<svg width="20" height="20" xmlns="http://www.w3.org/2000/svg">
 <g>
  <title>background</title>
  <g id="canvasGrid" display="none">
   <rect id="svg_1" width="100%" height="100%" x="0" y="0" stroke-width="0" fill="url(#gridpattern)"/>
  </g>
 </g>
 <g>
  <title>Layer 1</title>
  <g transform="rotate(-0.365679, 10.1186, 9.96494)" id="svg_6">
   <rect id="svg_4" width="20" height="20" rx="10" fill="#e861a0" transform="matrix(0.972661, 0, 0, 1.0001, -0.32331, -1.1859)" y="1.14975" x="0.73546"/>
  </g>
  <g id="svg_16">
   <g id="svg_12" transform="matrix(1.14436, 0, 0, 1.05721, 6.9942, 8.52183)">
    <g id="svg_13">
     <path id="svg_14" d="m2.87019,3.23011a3.539,3.539 0 1 0 -3.539,-3.539a3.539,3.539 0 0 0 3.539,3.539zm0,0l0,2.359m0,1.18l0,-1.18m0,0l-1.18,0m1.18,0l1.18,0" fill="none" stroke="#fff" stroke-linecap="round" stroke-linejoin="round"/>
    </g>
   </g>
  </g>
 </g>
 <g>
  <title>background</title>
  <rect fill="none" id="canvas_background" height="22" width="22" y="-1" x="-1"/>
 </g>
</svg>