<svg xmlns="http://www.w3.org/2000/svg" width="24.022" height="21.949" viewBox="0 0 24.022 21.949">
  <g id="heart" transform="translate(-0.1 -3.1)">
    <g id="Сгруппировать_51" data-name="Сгруппировать 51" transform="translate(1 4)">
      <path id="Контур_33" data-name="Контур 33" d="M24.223,9.513A6.611,6.611,0,0,1,22.385,14.1c-2.712,2.812-5.343,5.745-8.156,8.453a1.628,1.628,0,0,1-2.286-.05L3.838,14.1a6.65,6.65,0,0,1,0-9.179,6.2,6.2,0,0,1,8.978,0l.3.3.294-.3a6.2,6.2,0,0,1,8.978,0,6.611,6.611,0,0,1,1.839,4.589Z" transform="translate(-2 -3)" fill="none" stroke="#fff" stroke-linejoin="round" stroke-width="1.8"/>
    </g>
  </g>
</svg>
