<svg xmlns="http://www.w3.org/2000/svg" width="15.556" height="14" viewBox="0 0 15.556 14">
  <g id="heart-full" transform="translate(9 -3)">
    <g id="Сгруппировать_52" data-name="Сгруппировать 52" transform="translate(-9 3)">
      <path id="Контур_34" data-name="Контур 34" d="M17.556,7.559a4.628,4.628,0,0,1-1.286,3.212c-1.9,1.969-3.74,4.021-5.709,5.917a1.139,1.139,0,0,1-1.6-.035L3.287,10.772a4.655,4.655,0,0,1,0-6.425,4.34,4.34,0,0,1,6.285,0l.207.213.206-.213a4.338,4.338,0,0,1,6.285,0,4.628,4.628,0,0,1,1.287,3.212Z" transform="translate(-2 -3)" fill="#ed5d5d"/>
    </g>
  </g>
</svg>
