<svg xmlns="http://www.w3.org/2000/svg" width="14.333" height="13.087" viewBox="0 0 14.333 13.087">
  <g id="heart" transform="translate(-1.5 -2.5)">
    <g id="Сгруппировать_221" data-name="Сгруппировать 221" transform="translate(2 3)">
      <path id="Контур_97" data-name="Контур 97" d="M15.334,6.908a3.967,3.967,0,0,1-1.1,2.753c-1.627,1.687-3.206,3.447-4.893,5.072a.977.977,0,0,1-1.371-.03L3.1,9.662a3.99,3.99,0,0,1,0-5.507,3.72,3.72,0,0,1,5.387,0l.177.183.177-.183a3.719,3.719,0,0,1,5.387,0A3.967,3.967,0,0,1,15.334,6.908Z" transform="translate(-2 -3)" fill="none" stroke="#e861a0" stroke-linejoin="round" stroke-width="1"/>
    </g>
  </g>
</svg>
