<svg xmlns="http://www.w3.org/2000/svg" width="31" height="31" viewBox="0 0 31 31">
  <g id="pinterest" transform="translate(0.412 0.238)">
    <rect id="Прямоугольник_170" data-name="Прямоугольник 170" width="31" height="31" rx="15.5" transform="translate(-0.412 -0.238)" fill="#cb1f27"/>
    <g id="Сгруппировать_136" data-name="Сгруппировать 136" transform="translate(7.651 7.708)">
      <circle id="Эллипс_28" data-name="Эллипс 28" cx="7.555" cy="7.555" r="7.555" transform="translate(0.152 0.149)" fill="#fff"/>
      <g id="pinterest-seeklogo.com">
        <path id="Контур_76" data-name="Контур 76" d="M0,7.707a7.707,7.707,0,0,0,4.613,7.059A6.771,6.771,0,0,1,4.747,13c.148-.626.992-4.2.992-4.2a2.961,2.961,0,0,1-.246-1.219c0-1.142.662-2,1.486-2a1.032,1.032,0,0,1,1.04,1.157,16.593,16.593,0,0,1-.681,2.735,1.193,1.193,0,0,0,1.216,1.484c1.46,0,2.444-1.875,2.444-4.1A2.885,2.885,0,0,0,7.791,3.908,3.649,3.649,0,0,0,4,7.6,2.225,2.225,0,0,0,4.505,9.11a.374.374,0,0,1,.111.43c-.037.142-.122.483-.157.618a.266.266,0,0,1-.386.193A2.968,2.968,0,0,1,2.495,7.407C2.495,5.217,4.341,2.592,8,2.592a4.606,4.606,0,0,1,4.879,4.415c0,3.023-1.681,5.282-4.158,5.282a2.21,2.21,0,0,1-1.883-.961S6.393,13.1,6.3,13.447A6.453,6.453,0,0,1,5.523,15.1,7.707,7.707,0,1,0,0,7.707Z" fill="#cb1f27"/>
      </g>
    </g>
  </g>
</svg>
