<svg xmlns="http://www.w3.org/2000/svg" width="55" height="55" viewBox="0 0 55 55">
  <g id="pinterest" transform="translate(0.412 0.238)">
    <rect id="Прямоугольник_170" data-name="Прямоугольник 170" width="55" height="55" rx="27.5" transform="translate(-0.412 -0.238)" fill="#cb1f27"/>
    <g id="Сгруппировать_136" data-name="Сгруппировать 136" transform="translate(16.067 15.944)">
      <ellipse id="Эллипс_28" data-name="Эллипс 28" cx="10.848" cy="10.848" rx="10.848" ry="10.848" transform="translate(0.152 0.149)" fill="#fff"/>
      <g id="pinterest-seeklogo.com">
        <path id="Контур_76" data-name="Контур 76" d="M0,11A11,11,0,0,0,6.584,21.075a9.664,9.664,0,0,1,.191-2.526c.211-.893,1.415-5.994,1.415-5.994a4.226,4.226,0,0,1-.351-1.74c0-1.63.945-2.848,2.121-2.848a1.473,1.473,0,0,1,1.484,1.651,23.683,23.683,0,0,1-.971,3.9,1.7,1.7,0,0,0,1.736,2.119c2.084,0,3.488-2.677,3.488-5.848,0-2.411-1.624-4.215-4.577-4.215a5.209,5.209,0,0,0-5.415,5.268A3.176,3.176,0,0,0,6.43,13a.533.533,0,0,1,.158.613c-.053.2-.174.69-.224.883a.379.379,0,0,1-.551.275c-1.537-.627-2.253-2.31-2.253-4.2C3.561,7.447,6.2,3.7,11.422,3.7c4.2,0,6.964,3.039,6.964,6.3,0,4.315-2.4,7.539-5.935,7.539a3.154,3.154,0,0,1-2.687-1.371S9.125,18.7,8.99,19.192a9.211,9.211,0,0,1-1.107,2.356A11,11,0,1,0,0,11Z" fill="#cb1f27"/>
      </g>
    </g>
  </g>
</svg>
