<svg xmlns="http://www.w3.org/2000/svg" width="52.315" height="74.698" viewBox="0 0 52.315 74.698">
  <g id="pregnant_icon" data-name="pregnant icon" transform="translate(0 0)">
    <path id="Path_62" data-name="Path 62" d="M127.388,2.4A7.36,7.36,0,0,0,122,0H104.739a1.459,1.459,0,0,0-1.255.715c-1.329,2.24-2.18,4-2.863,5.406C98.9,9.677,98.751,9.979,95.23,9.914A12.612,12.612,0,0,0,87.5,11.781a10.858,10.858,0,0,0-4.338,5.475,11.183,11.183,0,0,0-.191,6.949,11.529,11.529,0,0,0,3.281,5.181,4.5,4.5,0,0,0-.586,1.414,4.957,4.957,0,0,0-.107.782c-5.944,3.979-9.368,10.6-8.778,17.127.569,6.295,4.686,11.528,11.38,14.558-1.317,2.853-2.025,7.276-.388,10.614a1.459,1.459,0,0,0,1.31.816H99.814a1.459,1.459,0,1,0,0-2.918H90.064a11.273,11.273,0,0,1,.852-7.51,14.442,14.442,0,0,0,3.231.341c5.055,0,11.012-2.115,13.1-5.135a1.459,1.459,0,1,0-2.4-1.66c-.874,1.264-3.282,2.551-6.133,3.28a14.381,14.381,0,0,1-7.972.091C84.126,58.666,80.2,54.143,79.682,48.447c-.5-5.476,2.437-11.065,7.515-14.453a25.806,25.806,0,0,1,3.212.528l25.436,5.828c7.318,8.888,9.144,19.183,5.56,31.431h-8.492a1.459,1.459,0,0,0,0,2.918h9.573a1.459,1.459,0,0,0,1.392-1.022c2.306-7.341,2.812-14.217,1.5-20.438A33.369,33.369,0,0,0,120,41a6.267,6.267,0,0,0,3.191-1.162,7.456,7.456,0,0,0,2.954-5.428l2.845-27.256a6.1,6.1,0,0,0-1.6-4.756Zm-21.811.521h9.338c-.724,3.539-2.581,5.694-5.759,6.725a22.045,22.045,0,0,1-7.5.7,22.312,22.312,0,0,0,1.595-2.948C103.831,6.188,104.542,4.721,105.576,2.918Zm17.669,31.189a4.593,4.593,0,0,1-1.75,3.358,3.469,3.469,0,0,1-2.834.537L90.3,31.5a16.458,16.458,0,0,0-1.748-.242,3.421,3.421,0,0,1,.846-1.125,5.884,5.884,0,0,1,4.792-1.291l21.488,3.834a1.459,1.459,0,0,0,1.714-1.374l.5-11.562,6.688,1.6ZM126.09,6.849l-1.207,11.563L116.847,16.5a1.459,1.459,0,0,0-1.8,1.357l-.5,11.662-19.844-3.54a8.82,8.82,0,0,0-6.4,1.342,8.274,8.274,0,0,1-2.4-9.069c1.024-2.843,3.974-5.759,9.171-5.418h.036c.851.035,1.81.11,2.825.191,1.689.133,3.568.281,5.48.281a21.707,21.707,0,0,0,6.64-.883c4.357-1.413,6.983-4.607,7.824-9.5H122a4.4,4.4,0,0,1,3.22,1.431,3.22,3.22,0,0,1,.871,2.5Z" transform="translate(-76.71 0)" fill="#634282"/>
    <path id="Path_63" data-name="Path 63" d="M138.262,273.855a5.564,5.564,0,0,0-7.393,8.3l6.381,6.154a1.459,1.459,0,0,0,2.026,0l6.376-6.153a5.563,5.563,0,0,0-7.39-8.3Zm6.167,4.347a2.624,2.624,0,0,1-.8,1.857l-5.364,5.176L132.9,280.06a2.642,2.642,0,0,1,1.792-4.544h.049a2.627,2.627,0,0,1,1.836.738l.678.653a1.459,1.459,0,0,0,2.025,0l.68-.655a2.64,2.64,0,0,1,4.475,1.949Z" transform="translate(-121.519 -232.828)" fill="#e861a0"/>
    <path id="Path_64" data-name="Path 64" d="M271.423,492a1.459,1.459,0,1,0,0,2.918h.008a1.459,1.459,0,1,0-.008-2.918Z" transform="translate(-241.769 -420.22)" fill="#634282"/>
  </g>
</svg>
