<svg xmlns="http://www.w3.org/2000/svg" width="21.499" height="21.5" viewBox="0 0 21.499 21.5">
  <g id="settings" transform="translate(-1.25 -1.25)">
    <g id="Group_31" data-name="Group 31">
      <path id="Path_25" data-name="Path 25" d="M12,15a3,3,0,1,0-3-3A3,3,0,0,0,12,15Z" fill="none" stroke="#000" stroke-linecap="round" stroke-linejoin="round" stroke-width="1.5"/>
      <path id="Path_26" data-name="Path 26" d="M21.79,10.763l-2.168-.368-1.1-2.65.358-.5L19.8,5.959a.259.259,0,0,0-.029-.339L18.39,4.237a.252.252,0,0,0-.334-.03l-1.79,1.276L13.559,4.37l-.1-.608L13.2,2.219A.26.26,0,0,0,12.936,2H10.982a.261.261,0,0,0-.26.222L10.35,4.4,7.7,5.516,5.923,4.232a.26.26,0,0,0-.335.034L4.2,5.648a.263.263,0,0,0-.03.339l1.283,1.8-1.08,2.657-.611.1-1.543.26a.26.26,0,0,0-.219.26v1.955a.261.261,0,0,0,.222.26l2.18.371L5.515,16.3l-.364.506-.912,1.267a.26.26,0,0,0,.03.34L5.652,19.8a.252.252,0,0,0,.334.03l1.8-1.285L10.4,19.612l.1.61.26,1.559a.26.26,0,0,0,.26.219h1.958a.26.26,0,0,0,.26-.221l.367-2.166,2.651-1.1.5.36,1.289.92a.26.26,0,0,0,.333-.032l1.384-1.383a.263.263,0,0,0,.029-.339l-1.276-1.792,1.1-2.651.608-.1,1.558-.26a.26.26,0,0,0,.22-.26v-1.97a.244.244,0,0,0-.21-.244Z" fill="none" stroke="#000" stroke-linecap="round" stroke-linejoin="round" stroke-width="1.5"/>
    </g>
  </g>
</svg>
