<svg xmlns="http://www.w3.org/2000/svg" width="55" height="55" viewBox="0 0 55 55">
  <g id="twitter" transform="translate(0.239 0.238)">
    <rect id="Прямоугольник_169" data-name="Прямоугольник 169" width="55" height="55" rx="27.5" transform="translate(-0.239 -0.238)" fill="#1da1f2"/>
    <g id="twitter-2" data-name="twitter" transform="translate(17.553 19.683)">
      <g id="Сгруппировать_135" data-name="Сгруппировать 135">
        <path id="Контур_75" data-name="Контур 75" d="M21.692,5.892a8.067,8.067,0,0,1-2.32.636A4.057,4.057,0,0,0,21.148,4.3a8.145,8.145,0,0,1-2.567.981A4.04,4.04,0,0,0,11.7,8.958a11.469,11.469,0,0,1-8.328-4.22,4.046,4.046,0,0,0,1.25,5.392,4.04,4.04,0,0,1-1.829-.507v.051a4.044,4.044,0,0,0,3.239,3.961,4.091,4.091,0,0,1-1.063.141,3.874,3.874,0,0,1-.761-.075,4.042,4.042,0,0,0,3.773,2.806,8.105,8.105,0,0,1-5.017,1.726A8.636,8.636,0,0,1,2,18.178,11.418,11.418,0,0,0,8.191,20,11.415,11.415,0,0,0,19.684,8.5l-.014-.523A8.067,8.067,0,0,0,21.692,5.892Z" transform="translate(-1.999 -3.996)" fill="#fff"/>
      </g>
    </g>
  </g>
</svg>
