<svg xmlns="http://www.w3.org/2000/svg" width="31" height="31" viewBox="0 0 31 31">
  <g id="twitter" transform="translate(0.239 0.238)">
    <rect id="Прямоугольник_169" data-name="Прямоугольник 169" width="31" height="31" rx="15.5" transform="translate(-0.239 -0.238)" fill="#1da1f2"/>
    <g id="twitter-2" data-name="twitter" transform="translate(7.645 9.368)">
      <g id="Сгруппировать_135" data-name="Сгруппировать 135">
        <path id="Контур_75" data-name="Контур 75" d="M17.11,5.451a6.19,6.19,0,0,1-1.78.488,3.113,3.113,0,0,0,1.363-1.713,6.25,6.25,0,0,1-1.97.752A3.1,3.1,0,0,0,9.441,7.8a8.8,8.8,0,0,1-6.39-3.238A3.1,3.1,0,0,0,4.011,8.7a3.1,3.1,0,0,1-1.4-.389v.039a3.1,3.1,0,0,0,2.486,3.039,3.139,3.139,0,0,1-.816.108,2.973,2.973,0,0,1-.584-.057,3.1,3.1,0,0,0,2.9,2.153A6.219,6.219,0,0,1,2.739,14.92,6.627,6.627,0,0,1,2,14.878,8.762,8.762,0,0,0,6.75,16.273a8.759,8.759,0,0,0,8.819-8.819l-.011-.4A6.19,6.19,0,0,0,17.11,5.451Z" transform="translate(-1.999 -3.996)" fill="#fff"/>
      </g>
    </g>
  </g>
</svg>
